<svg fill="#000000" xmlns="http://www.w3.org/2000/svg"  viewBox="0 0 128 128" width="256px" height="256px">    <path d="M125,28.7l-33.8-12c-0.8-0.3-1.6-0.2-2.3,0.1C87.8,17.3,29,38.1,29,38.1c-1.5,0.5-2.5,1.9-2.5,3.5v14c0,1.3,0.8,2.4,2,2.8 l7.8,2.8c2,0.7,4-0.7,4-2.8V46.7c0-1.6,1-3,2.5-3.5l53.1-18.4l19.2,6.8L63,49.9c0,0,0,0,0,0c-1.1,0.4-2,1.5-2,2.8v60.8L7,94.4V33.6 l58-20.5c1.6-0.6,2.4-2.3,1.8-3.8c-0.6-1.6-2.3-2.4-3.8-1.8L3,28.7c-1.2,0.4-2,1.6-2,2.8v65c0,1.3,0.8,2.4,2,2.8l60,21.2 c0.3,0.1,0.7,0.2,1,0.2c0.2,0,0.3,0,0.5,0c0,0,0.1,0,0.1,0c0.1,0,0.2-0.1,0.4-0.1c0,0,0,0,0,0l60-21.2c1.2-0.4,2-1.6,2-2.8v-65 c0,0,0,0,0,0C127,30.2,126.2,29.1,125,28.7z"/></svg>